<!-- icon-name: bill-wrench -->
<svg xmlns="http://www.w3.org/2000/svg" viewBox="0 0 64 64" fill="none" stroke="#f8f9fa" stroke-width="2" stroke-linecap="round" stroke-linejoin="round">
  <path d="M 36 6 L 24 16 L 24 24 C 24 26 28 26 28 28 L 28 56 C 28 58 36 58 36 56 L 36 28 C 36 26 40 26 40 24 L 40 12 L 36 12 Z"/>
  <path d="M 32 12 L 32 6"/>
  <rect x="22" y="20" width="20" height="4" rx="1"/>
  <path d="M 26 20 L 26 24 M 30 20 L 30 24 M 34 20 L 34 24 M 38 20 L 38 24" stroke-width="1.2"/>
  <circle cx="32" cy="52" r="2"/>
</svg>