<!-- icon-name: donna-whistle -->
<svg xmlns="http://www.w3.org/2000/svg" viewBox="0 0 64 64" fill="none" stroke="#f8f9fa" stroke-width="2" stroke-linecap="round" stroke-linejoin="round">
  <!-- Whistle body -->
  <path d="M 12 28 L 36 28 C 42 28 46 32 46 38 C 46 44 42 48 36 48 L 28 48 C 22 48 18 44 18 38 L 18 28"/>
  <!-- Whistle mouthpiece -->
  <path d="M 12 26 L 12 30 M 8 28 L 16 28"/>
  <!-- Whistle hole -->
  <circle cx="38" cy="38" r="3" stroke-width="1.2"/>
  <!-- Lanyard -->
  <path d="M 12 28 C 8 24 8 16 16 12 C 24 8 32 10 32 16" stroke-width="1.2" stroke-dasharray="4 3"/>
  <!-- Sound waves -->
  <path d="M 50 34 C 52 36 52 40 50 42" stroke-width="1.2"/>
  <path d="M 54 32 C 57 35 57 41 54 44" stroke-width="1.2"/>
  <!-- Clock overlay (small) -->
  <circle cx="50" cy="16" r="8" stroke-width="1.5"/>
  <path d="M 50 12 L 50 16 L 53 18" stroke-width="1.2"/>
</svg>
