<svg xmlns="http://www.w3.org/2000/svg" viewBox="0 0 128 128" role="img" aria-label="Green Bastard mask icon">
  <defs>
    <linearGradient id="gbMask" x1="0" y1="0" x2="1" y2="1">
      <stop offset="0%" stop-color="#6ddc5f"/>
      <stop offset="100%" stop-color="#1e7a2e"/>
    </linearGradient>
  </defs>
  <rect width="128" height="128" rx="24" fill="#0f172a"/>
  <path d="M64 18c20 0 38 8 46 22v18c0 21-9 36-26 45l-4 15H48l-4-15C27 94 18 79 18 58V40c8-14 26-22 46-22Z" fill="url(#gbMask)" stroke="#d9ffd5" stroke-width="4"/>
  <path d="M34 46c10-8 22-12 30-12s20 4 30 12v10c-10-6-20-9-30-9s-20 3-30 9Z" fill="#d9ffd5" opacity="0.35"/>
  <path d="M34 60c8-10 18-15 30-15s22 5 30 15c-6 6-13 10-19 10-4 0-7-1-11-4-4 3-7 4-11 4-6 0-13-4-19-10Z" fill="#111827"/>
  <circle cx="52" cy="59" r="7" fill="#f8fafc"/>
  <circle cx="76" cy="59" r="7" fill="#f8fafc"/>
  <circle cx="52" cy="59" r="3" fill="#111827"/>
  <circle cx="76" cy="59" r="3" fill="#111827"/>
  <path d="M44 88c8 5 32 5 40 0" fill="none" stroke="#111827" stroke-width="6" stroke-linecap="round"/>
  <path d="M50 102h28" stroke="#d9ffd5" stroke-width="4" stroke-linecap="round"/>
</svg>