<!-- icon-name: green-bastard-mask -->
<svg xmlns="http://www.w3.org/2000/svg" viewBox="0 0 64 64" fill="none" stroke="#f8f9fa" stroke-width="2" stroke-linecap="round" stroke-linejoin="round" role="img" aria-label="Green Bastard mask icon">
  <path d="M 32 10 C 45 10 54 18 54 30 C 54 42 47 50 38 54 L 36 58 L 28 58 L 26 54 C 17 50 10 42 10 30 C 10 18 19 10 32 10 Z"/>
  <path d="M 18 24 C 23 20 27 18 32 18 C 37 18 41 20 46 24"/>
  <path d="M 18 31 C 21 26 25 24 29 24 C 31 24 33 25 35 27 C 37 25 39 24 41 24 C 45 24 49 26 52 31"/>
  <path d="M 18 31 C 21 35 25 37 28 37 C 31 37 33 35 35 33 C 37 35 39 37 42 37 C 45 37 49 35 52 31"/>
  <circle cx="26" cy="30" r="2.5" stroke-width="1.4"/>
  <circle cx="38" cy="30" r="2.5" stroke-width="1.4"/>
  <path d="M 24 44 Q 32 49 40 44" stroke-width="3"/>
  <path d="M 28 50 L 36 50" stroke-width="1.4"/>
  <path d="M 22 16 L 18 12" stroke-width="1.4"/>
  <path d="M 42 16 L 46 12" stroke-width="1.4"/>
</svg>