<!-- icon-name: orangie-fishbowl -->
<svg xmlns="http://www.w3.org/2000/svg" viewBox="0 0 64 64" fill="none" stroke="#f8f9fa" stroke-width="2" stroke-linecap="round" stroke-linejoin="round">
  <!-- Fishbowl -->
  <path d="M 14 20 Q 14 10 32 10 Q 50 10 50 20"/>
  <path d="M 14 20 Q 8 32 10 44 Q 14 54 32 56 Q 50 54 54 44 Q 56 32 50 20"/>
  <!-- Water line -->
  <path d="M 14 20 Q 20 24 26 20 Q 32 16 38 20 Q 44 24 50 20" stroke-width="1.2"/>
  <!-- Orangie (the fish) -->
  <ellipse cx="34" cy="34" rx="8" ry="5"/>
  <path d="M 42 34 L 48 28 L 48 40 Z"/>
  <circle cx="30" cy="33" r="1.5" fill="#f8f9fa" stroke="none"/>
  <!-- Bubbles rising -->
  <circle cx="24" cy="26" r="1.5" stroke-width="1"/>
  <circle cx="22" cy="22" r="1" stroke-width="1"/>
  <circle cx="26" cy="18" r="1.2" stroke-width="1"/>
  <!-- Bowl base -->
  <path d="M 24 56 L 40 56" stroke-width="2.5"/>
</svg>
