<!-- icon-name: randy-cheeseburger -->
<svg xmlns="http://www.w3.org/2000/svg" viewBox="0 0 64 64" fill="none" stroke="#f8f9fa" stroke-width="2" stroke-linecap="round" stroke-linejoin="round">
  <path d="M 12 28 C 12 16 28 12 32 12 C 36 12 52 16 52 28 Z"/>
  <circle cx="28" cy="20" r="1" stroke-width="2"/>
  <circle cx="36" cy="18" r="1" stroke-width="2"/>
  <circle cx="42" cy="22" r="1" stroke-width="2"/>
  <path d="M 10 32 L 14 30 L 18 34 L 22 30 L 26 34 L 30 30 L 34 34 L 38 30 L 42 34 L 46 30 L 50 34 L 54 32"/>
  <path d="M 10 38 L 54 38" stroke-width="4"/>
  <path d="M 14 42 C 14 48 50 48 50 42 Z"/>
  <path d="M 20 32 L 24 40 L 30 32 M 40 32 L 44 40 L 50 32" stroke-width="1.2"/>
</svg>