<!-- icon-name: trinity-notebook -->
<svg xmlns="http://www.w3.org/2000/svg" viewBox="0 0 64 64" fill="none" stroke="#f8f9fa" stroke-width="2" stroke-linecap="round" stroke-linejoin="round">
  <rect x="18" y="8" width="36" height="48" rx="2"/>
  <path d="M 12 14 C 20 14 20 18 12 18"/>
  <path d="M 12 24 C 20 24 20 28 12 28"/>
  <path d="M 12 34 C 20 34 20 38 12 38"/>
  <path d="M 12 44 C 20 44 20 48 12 48"/>
  <path d="M 26 22 L 50 22" stroke-width="1.2"/>
  <path d="M 26 32 L 50 32" stroke-width="1.2"/>
  <path d="M 26 42 L 50 42" stroke-width="1.2"/>
  <path d="M 26 20 L 30 24 L 38 14" stroke-width="2"/>
  <path d="M 26 30 L 30 34 L 38 24" stroke-width="2"/>
  <path d="M 46 8 L 56 18" stroke-width="1.2"/>
</svg>