<svg viewBox="0 0 1800 1200" xmlns="http://www.w3.org/2000/svg" style="background-color: #fdfcf9; font-family: 'Comic Sans MS', 'Chalkboard SE', 'Marker Felt', sans-serif;">
    <defs>
        <!-- Pencil Sketch / Whiteboard Filter for hand-drawn wobble -->
        <filter id="handdrawn" x="-20%" y="-20%" width="140%" height="140%">
            <feTurbulence type="fractalNoise" baseFrequency="0.04" numOctaves="3" result="noise" />
            <feDisplacementMap in="SourceGraphic" in2="noise" scale="2.5" xChannelSelector="R" yChannelSelector="G" />
        </filter>
        <filter id="handdrawn-thick" x="-20%" y="-20%" width="140%" height="140%">
            <feTurbulence type="fractalNoise" baseFrequency="0.03" numOctaves="3" result="noise" />
            <feDisplacementMap in="SourceGraphic" in2="noise" scale="4" xChannelSelector="R" yChannelSelector="G" />
        </filter>
        
        <!-- Arrowheads -->
        <marker id="arrow-blue" viewBox="0 0 10 10" refX="5" refY="5" markerWidth="7" markerHeight="7" orient="auto-start-reverse">
            <path d="M 0 0 L 10 5 L 0 10 z" fill="#2980b9" filter="url(#handdrawn)"/>
        </marker>
        <marker id="arrow-green" viewBox="0 0 10 10" refX="5" refY="5" markerWidth="7" markerHeight="7" orient="auto-start-reverse">
            <path d="M 0 0 L 10 5 L 0 10 z" fill="#27ae60" filter="url(#handdrawn)"/>
        </marker>
        <marker id="arrow-orange" viewBox="0 0 10 10" refX="5" refY="5" markerWidth="7" markerHeight="7" orient="auto-start-reverse">
            <path d="M 0 0 L 10 5 L 0 10 z" fill="#d35400" filter="url(#handdrawn)"/>
        </marker>
        <marker id="arrow-black" viewBox="0 0 10 10" refX="5" refY="5" markerWidth="7" markerHeight="7" orient="auto-start-reverse">
            <path d="M 0 0 L 10 5 L 0 10 z" fill="#2c3e50" filter="url(#handdrawn)"/>
        </marker>
        
        <!-- Drop Shadow for Objects -->
        <filter id="shadow" x="-10%" y="-10%" width="130%" height="130%">
            <feDropShadow dx="15" dy="15" stdDeviation="5" flood-color="#000000" flood-opacity="0.1"/>
        </filter>
    </defs>

    <g font-weight="bold">

        <!-- ========================================== -->
        <!-- CLEANER, STRUCTURED CONNECTION ARROWS      -->
        <!-- ========================================== -->
        <g fill="none" filter="url(#handdrawn)" stroke-linecap="round">
            <!-- Central Spine -->
            <path d="M 900,250 L 900,450" stroke="#2c3e50" stroke-width="8" stroke-dasharray="15,10" marker-end="url(#arrow-black)"/>
            
            <!-- Radiating to Nodes -->
            <path d="M 900,650 L 500,850" stroke="#2980b9" stroke-width="6" stroke-dasharray="20,10" marker-end="url(#arrow-blue)"/>
            <path d="M 900,650 L 1300,850" stroke="#d35400" stroke-width="6" stroke-dasharray="20,10" marker-end="url(#arrow-orange)"/>
            <path d="M 300,400 Q 500,550 700,550" stroke="#27ae60" stroke-width="6" marker-end="url(#arrow-green)"/>
            <path d="M 1500,400 Q 1300,550 1100,550" stroke="#27ae60" stroke-width="6" marker-end="url(#arrow-green)"/>
            
            <!-- Cycle / Feedback Arrow -->
            <path d="M 1200,1050 C 900,1100 600,1100 350,900" stroke="#e74c3c" stroke-width="6" stroke-dasharray="10,15"/>
            <path d="M 350,900 L 320,830" stroke="#e74c3c" stroke-width="6" marker-end="url(#arrow-black)"/>
        </g>

        <!-- ========================================== -->
        <!-- TITLE (Top Center)                         -->
        <!-- ========================================== -->
        <g transform="translate(900, 150)">
            <g filter="url(#handdrawn-thick)">
                <!-- Rough Banner -->
                <polygon points="-350,-60 350,-50 370,40 330,60 -360,50 -380,0" fill="#ffffff" stroke="#2c3e50" stroke-width="6"/>
                <!-- Accents -->
                <path d="M -340,-50 L 340,-40" fill="none" stroke="#2980b9" stroke-width="3"/>
                <path d="M -340,-35 L 340,-25" fill="none" stroke="#2980b9" stroke-width="3"/>
                <path d="M -350,45 L 340,35" fill="none" stroke="#e74c3c" stroke-width="3"/>
            </g>
            <!-- Title Text -->
            <text x="0" y="10" font-size="60" text-anchor="middle" fill="#2c3e50" letter-spacing="2" filter="url(#handdrawn)">BUBBLES AGENT BAZAAR</text>
        </g>

        <!-- ========================================== -->
        <!-- FLOATING NATURAL TEXT (Not in Ovals)       -->
        <!-- ========================================== -->
        <!-- Quotes are written as if naturally jotted on the board next to the elements -->
        
        <!-- Near Analyst -->
        <g transform="translate(200, 250) rotate(-6)" filter="url(#handdrawn)">
            <text x="0" y="0" font-size="28" fill="#c0392b">"IT'S NOT ROCKET</text>
            <text x="40" y="35" font-size="28" fill="#c0392b">APPLIANCES"</text>
            <path d="M -10,10 L 260,10 M 30,45 L 230,45" fill="none" stroke="#f1c40f" stroke-width="4"/>
            <!-- Scribble arrow pointing to agent -->
            <path d="M 120,60 Q 150,150 200,200" fill="none" stroke="#c0392b" stroke-width="3" marker-end="url(#arrow-black)"/>
        </g>

        <!-- Near Workflow -->
        <g transform="translate(1000, 300) rotate(4)" filter="url(#handdrawn)">
            <text x="0" y="0" font-size="26" fill="#8e44ad">A SHIT BLIZZARD</text>
            <text x="20" y="30" font-size="26" fill="#8e44ad">IS COMING, BOYS!</text>
            <path d="M -20,-30 C 150,-50 250,50 150,80 C 50,100 -50,50 -20,-30" fill="none" stroke="#8e44ad" stroke-width="2" stroke-dasharray="8,8"/>
        </g>

        <!-- Near Implementer -->
        <g transform="translate(120, 1050) rotate(-4)" filter="url(#handdrawn)">
            <text x="0" y="0" font-size="32" fill="#2980b9">WORST CASE ONTARIO:</text>
            <text x="20" y="40" font-size="32" fill="#2980b9">TWO BIRDS STONED</text>
            <text x="80" y="80" font-size="32" fill="#2980b9">AT ONCE.</text>
            <!-- Heavy marker underline -->
            <path d="M 70,100 L 250,90 L 80,110 L 240,100" fill="none" stroke="#e74c3c" stroke-width="6"/>
        </g>

        <!-- Near Chaos -->
        <g transform="translate(1450, 200) rotate(8)" filter="url(#handdrawn)">
            <text x="0" y="0" font-size="28" fill="#d35400">THE SHIT WINDS</text>
            <text x="10" y="35" font-size="28" fill="#d35400">ARE BLOWIN'</text>
            <path d="M -10,-10 L -10,50 M -20,-5 L -20,45" fill="none" stroke="#c0392b" stroke-width="4"/>
        </g>

        <!-- Near Tester -->
        <g transform="translate(1400, 1020) rotate(-3)" filter="url(#handdrawn)">
            <text x="0" y="0" font-size="35" fill="#2c3e50">DENIAL</text>
            <text x="20" y="40" font-size="35" fill="#2c3e50">&amp; ERROR</text>
            <!-- Scrawled circle around it -->
            <path d="M -30,20 C -20,-60 150,-40 180,30 C 200,90 20,110 -30,20" fill="none" stroke="#27ae60" stroke-width="5"/>
            <text x="-40" y="40" font-size="40" fill="#27ae60">?</text>
        </g>


        <!-- ========================================== -->
        <!-- THE AGENT CROWD (RICHER DRAWINGS)          -->
        <!-- ========================================== -->

        <!-- 1. ANALYST AGENT (Left Middle) -->
        <g transform="translate(300, 500) scale(1.1)" filter="url(#shadow)">
            <g filter="url(#handdrawn-thick)">
                <!-- Easel / Whiteboard Background -->
                <rect x="-140" y="-140" width="220" height="260" fill="#ffffff" stroke="#2c3e50" stroke-width="8"/>
                <!-- Easel legs -->
                <path d="M -100,120 L -120,200 M 40,120 L 60,200 M -30,120 L -30,180" stroke="#2c3e50" stroke-width="8" stroke-linecap="round"/>
                
                <!-- Graphs on the board -->
                <path d="M -120,-20 L -20,-20" stroke="#bdc3c7" stroke-width="4"/>
                <path d="M -120,40 L -120,-100" stroke="#bdc3c7" stroke-width="4"/>
                <rect x="-100" y="-10" width="20" height="50" fill="#3498db" stroke="#2c3e50" stroke-width="3" transform="scale(1, -1) translate(0, 20)"/>
                <rect x="-70" y="-40" width="20" height="80" fill="#2ecc71" stroke="#2c3e50" stroke-width="3" transform="scale(1, -1) translate(0, 20)"/>
                <rect x="-40" y="-80" width="20" height="120" fill="#e74c3c" stroke="#2c3e50" stroke-width="3" transform="scale(1, -1) translate(0, 20)"/>
                
                <!-- Large Pie Chart cutting off the easel -->
                <circle cx="80" cy="-60" r="60" fill="#ffffff" stroke="#2c3e50" stroke-width="6"/>
                <path d="M 80,-60 L 80,-120 A 60 60 0 0 1 140,-60 Z" fill="#9b59b6" stroke="#2c3e50" stroke-width="4"/>
                <path d="M 80,-60 L 140,-60 A 60 60 0 0 1 40,0 Z" fill="#f1c40f" stroke="#2c3e50" stroke-width="4"/>
                <path d="M 90,-70 L 120,-100 M 110,-40 L 150,-30 M 50,-10 L 20,40" stroke="#2c3e50" stroke-width="3" stroke-linecap="round"/>

                <!-- Coffee cup on the easel tray -->
                <rect x="-150" y="110" width="240" height="15" fill="#2c3e50"/>
                <rect x="-130" y="80" width="30" height="30" fill="#ffffff" stroke="#2c3e50" stroke-width="4"/>
                <path d="M -100,85 C -90,85 -90,105 -100,105" fill="none" stroke="#2c3e50" stroke-width="4"/>
                <!-- Steam -->
                <path d="M -125,70 Q -135,50 -115,40 M -115,75 Q -105,55 -125,45" fill="none" stroke="#7f8c8d" stroke-width="3"/>
                
                <!-- Label pinned to board -->
                <g transform="translate(-100, -120) rotate(-8)">
                    <rect x="0" y="0" width="100" height="35" fill="#f39c12" stroke="#2c3e50" stroke-width="3"/>
                    <circle cx="50" cy="5" r="4" fill="#c0392b"/>
                    <text x="50" y="25" font-size="18" fill="#2c3e50" text-anchor="middle">ANALYST</text>
                </g>
            </g>
        </g>

        <!-- 2. WORKFLOW AGENT (Top Center-Right) -->
        <g transform="translate(900, 500) scale(1.1)" filter="url(#shadow)">
            <g filter="url(#handdrawn-thick)">
                <!-- Open Map/Binder -->
                <polygon points="-160,-80 -10,-60 -10,120 -160,100" fill="#ffffff" stroke="#2c3e50" stroke-width="8"/>
                <polygon points="160,-80 10,-60 10,120 160,100" fill="#ffffff" stroke="#2c3e50" stroke-width="8"/>
                
                <!-- Binder rings -->
                <circle cx="0" cy="-30" r="10" fill="#ffffff" stroke="#7f8c8d" stroke-width="5"/>
                <circle cx="0" cy="20" r="10" fill="#ffffff" stroke="#7f8c8d" stroke-width="5"/>
                <circle cx="0" cy="70" r="10" fill="#ffffff" stroke="#7f8c8d" stroke-width="5"/>

                <!-- Complex Map/Flowchart drawn inside -->
                <!-- Left page -->
                <rect x="-140" y="-30" width="50" height="30" rx="5" fill="#ffffff" stroke="#3498db" stroke-width="4"/>
                <rect x="-90" y="40" width="60" height="30" rx="5" fill="#ffffff" stroke="#e74c3c" stroke-width="4"/>
                <path d="M -115,0 L -115,20 L -60,20 L -60,40" fill="none" stroke="#2c3e50" stroke-width="4" marker-end="url(#arrow-black)"/>
                <!-- Right page -->
                <circle cx="50" cy="-10" r="20" fill="#ffffff" stroke="#27ae60" stroke-width="4"/>
                <circle cx="110" cy="60" r="25" fill="#ffffff" stroke="#9b59b6" stroke-width="4"/>
                <path d="M 65,-10 C 90,-10 90,60 110,60" fill="none" stroke="#2c3e50" stroke-width="4" stroke-dasharray="5,5"/>

                <!-- Oversized Glasses resting on the binder -->
                <g transform="translate(0, 30) rotate(15)">
                    <circle cx="-50" cy="0" r="35" fill="#ffffff" stroke="#2c3e50" stroke-width="10"/>
                    <circle cx="50" cy="0" r="35" fill="#ffffff" stroke="#2c3e50" stroke-width="10"/>
                    <path d="M -15,0 Q 0,-15 15,0" fill="none" stroke="#2c3e50" stroke-width="8"/>
                    <!-- Lens reflections -->
                    <line x1="-70" y1="15" x2="-30" y2="-15" stroke="#3498db" stroke-width="5" stroke-linecap="round"/>
                    <line x1="30" y1="15" x2="70" y2="-15" stroke="#3498db" stroke-width="5" stroke-linecap="round"/>
                </g>

                <!-- Label tag at the bottom -->
                <rect x="-60" y="130" width="120" height="30" fill="#ffffff" stroke="#2c3e50" stroke-width="4"/>
                <text x="0" y="152" font-size="16" fill="#2c3e50" text-anchor="middle">WORKFLOW</text>
            </g>
        </g>

        <!-- 3. CHAOS AGENT (Far Right Middle) -->
        <g transform="translate(1500, 480) scale(1.15)" filter="url(#shadow)">
            <g filter="url(#handdrawn-thick)">
                <!-- Background Explosion -->
                <path d="M 0,-140 L 20,-90 L 80,-100 L 40,-50 L 100,-10 L 50,20 L 90,70 L 30,60 L 0,110 L -30,60 L -90,70 L -50,20 L -100,-10 L -40,-50 L -80,-100 L -20,-90 Z" 
                      fill="#f39c12" stroke="#e67e22" stroke-width="5" opacity="0.6"/>

                <!-- The Bomb -->
                <circle cx="0" cy="0" r="80" fill="#ffffff" stroke="#2c3e50" stroke-width="10"/>
                <!-- Highlight curve -->
                <path d="M -50,-40 A 50 50 0 0 1 -10,-60" fill="none" stroke="#bdc3c7" stroke-width="8" stroke-linecap="round"/>
                
                <!-- Dynamite Cap -->
                <rect x="-20" y="-95" width="40" height="20" fill="#ffffff" stroke="#2c3e50" stroke-width="6"/>
                <!-- Burning Fuse -->
                <path d="M 0,-95 Q 30,-130 -10,-160 T 30,-200" fill="none" stroke="#7f8c8d" stroke-width="8"/>
                <circle cx="30" cy="-200" r="15" fill="#e74c3c" stroke="#f1c40f" stroke-width="4"/>
                <path d="M 10,-200 L -10,-210 M 50,-200 L 70,-210 M 30,-220 L 30,-240 M 30,-180 L 30,-160" stroke="#e74c3c" stroke-width="4" stroke-linecap="round"/>

                <!-- Danger Skull on the Bomb -->
                <g transform="translate(0, 10)">
                    <circle cx="-20" cy="-10" r="10" fill="#2c3e50"/>
                    <circle cx="20" cy="-10" r="10" fill="#2c3e50"/>
                    <path d="M -15,15 L 15,15 M -10,10 L -10,20 M 0,10 L 0,20 M 10,10 L 10,20" stroke="#2c3e50" stroke-width="4"/>
                </g>

                <rect x="-55" y="90" width="110" height="35" fill="#ffffff" stroke="#e74c3c" stroke-width="4" transform="rotate(-5)"/>
                <text x="0" y="115" font-size="18" fill="#c0392b" text-anchor="middle" transform="rotate(-5)">CHAOS</text>
            </g>
        </g>

        <!-- 4. IMPLEMENTER AGENT (Bottom Left) -->
        <g transform="translate(450, 900) scale(1.15)" filter="url(#shadow)">
            <g filter="url(#handdrawn-thick)">
                <!-- Isometric Laptop Base -->
                <polygon points="-120,40 120,40 160,90 -160,90" fill="#ffffff" stroke="#2c3e50" stroke-width="8" stroke-linejoin="round"/>
                <!-- Laptop Screen -->
                <polygon points="-120,40 120,40 100,-100 -100,-100" fill="#ffffff" stroke="#2c3e50" stroke-width="8" stroke-linejoin="round"/>
                <!-- Inner Screen (showing code) -->
                <polygon points="-105,30 105,30 85,-90 -85,-90" fill="#ffffff" stroke="#3498db" stroke-width="4"/>
                
                <!-- Code on screen -->
                <path d="M -80,-70 L -20,-70 M -80,-50 L 50,-50 M -70,-30 L 70,-30 M -80,-10 L 0,-10 M -70,10 L 80,10" fill="none" stroke="#27ae60" stroke-width="5" stroke-linecap="round" stroke-dasharray="15,5,5,10"/>
                
                <!-- Keyboard details -->
                <polygon points="-100,50 100,50 130,75 -130,75" fill="none" stroke="#bdc3c7" stroke-width="3"/>
                <line x1="-50" y1="50" x2="-65" y2="75" stroke="#bdc3c7" stroke-width="2"/>
                <line x1="0" y1="50" x2="0" y2="75" stroke="#bdc3c7" stroke-width="2"/>
                <line x1="50" y1="50" x2="65" y2="75" stroke="#bdc3c7" stroke-width="2"/>

                <!-- Pepperoni Pizza Slice on the keyboard -->
                <g transform="translate(-100, 50) rotate(20)">
                    <polygon points="0,0 60,-20 50,40" fill="#ffffff" stroke="#d35400" stroke-width="5" stroke-linejoin="round"/>
                    <!-- Crust -->
                    <path d="M 60,-20 C 65,0 65,20 50,40" fill="none" stroke="#e67e22" stroke-width="6" stroke-linecap="round"/>
                    <!-- Pepperoni points -->
                    <circle cx="20" cy="0" r="6" fill="#c0392b"/>
                    <circle cx="40" cy="-5" r="5" fill="#c0392b"/>
                    <circle cx="35" cy="15" r="7" fill="#c0392b"/>
                </g>

                <!-- Sticky note on monitor -->
                <polygon points="80,-90 120,-80 110,-40 70,-50" fill="#f1c40f" stroke="#2c3e50" stroke-width="3"/>
                <path d="M 85,-75 L 105,-70 M 80,-60 L 100,-55" fill="none" stroke="#e74c3c" stroke-width="2"/>

                <rect x="-70" y="110" width="140" height="35" fill="#ffffff" stroke="#2980b9" stroke-width="5"/>
                <text x="0" y="135" font-size="18" fill="#2980b9" text-anchor="middle">IMPLEMENTER</text>
            </g>
        </g>

        <!-- 5. TESTER AGENT (Bottom Right) -->
        <g transform="translate(1050, 950) scale(1.1)" filter="url(#shadow)">
            <g filter="url(#handdrawn-thick)">
                <!-- Giant Magnifying Glass overlapping a blueprint -->
                <!-- Blueprint paper -->
                <polygon points="-120,-70 60,-100 130,40 -50,70" fill="#ffffff" stroke="#3498db" stroke-width="5" stroke-linejoin="round"/>
                <!-- Blueprint grid lines -->
                <path d="M -100,-50 L 100,-20 M -80,-10 L 110,15 M -60,30 L 120,60" stroke="#3498db" stroke-width="2" opacity="0.5"/>
                <path d="M -90,-60 L -30,40 M -30,-70 L 30,50 M 30,-80 L 90,40" stroke="#3498db" stroke-width="2" opacity="0.5"/>
                
                <g transform="translate(10, -20)">
                    <!-- Actual Bug (Insect) on the paper -->
                    <ellipse cx="0" cy="0" rx="15" ry="25" fill="#ffffff" stroke="#2c3e50" stroke-width="5" transform="rotate(30)"/>
                    <path d="M -10,-10 L -30,-20 M -15,0 L -35,5 M -10,10 L -20,30" stroke="#2c3e50" stroke-width="4" stroke-linecap="round"/>
                    <path d="M 10,-20 L 25,-40 M 15,-10 L 40,-15 M 15,5 L 35,15" stroke="#2c3e50" stroke-width="4" stroke-linecap="round"/>
                    <!-- Big red X over the bug -->
                    <path d="M -20,-20 L 20,20 M -20,20 L 20,-20" stroke="#e74c3c" stroke-width="6" stroke-linecap="round"/>
                </g>

                <!-- Magnifying Glass -->
                <g transform="translate(-40, 20)">
                    <!-- Handle -->
                    <path d="M -40,40 L -90,90" stroke="#2c3e50" stroke-width="18" stroke-linecap="round"/>
                    <path d="M -40,40 L -90,90" stroke="#ffffff" stroke-width="6" stroke-linecap="round"/>
                    <!-- Rim -->
                    <circle cx="0" cy="0" r="55" fill="#fdfcf9" fill-opacity="0.8" stroke="#2c3e50" stroke-width="10"/>
                    <circle cx="0" cy="0" r="45" fill="none" stroke="#27ae60" stroke-width="4"/>
                    <!-- Glass glare -->
                    <path d="M -30,-30 A 35 35 0 0 1 20,-35" fill="none" stroke="#ffffff" stroke-width="8" stroke-linecap="round"/>
                    <path d="M -30,-30 A 35 35 0 0 1 20,-35" fill="none" stroke="#3498db" stroke-width="3" stroke-linecap="round"/>
                </g>

                <rect x="-40" y="110" width="100" height="30" fill="#ffffff" stroke="#e74c3c" stroke-width="4" transform="rotate(10)"/>
                <text x="10" y="132" font-size="16" fill="#c0392b" text-anchor="middle" transform="rotate(10)">TESTER</text>
            </g>
        </g>

        <!-- 6. DOCS AGENT (Top Left) -->
        <g transform="translate(600, 300) scale(0.9)" filter="url(#shadow)">
            <g filter="url(#handdrawn-thick)">
                <!-- Stack of folders / documents -->
                <path d="M -100,50 L 60,10 L 120,60 L -40,100 Z" fill="#ffffff" stroke="#2c3e50" stroke-width="6" stroke-linejoin="round"/>
                <!-- Colored Folder Tabs -->
                <rect x="-80" y="15" width="30" height="15" fill="#f1c40f" stroke="#2c3e50" stroke-width="3" transform="skewX(-45)"/>
                <path d="M -90,40 L 70,0 L 130,50 L -30,90 Z" fill="#ffffff" stroke="#27ae60" stroke-width="5" stroke-linejoin="round"/>
                
                <rect x="-60" y="-5" width="30" height="15" fill="#e74c3c" stroke="#2c3e50" stroke-width="3" transform="skewX(-45)"/>
                <path d="M -80,30 L 80,-10 L 140,40 L -20,80 Z" fill="#ffffff" stroke="#3498db" stroke-width="5" stroke-linejoin="round"/>

                <!-- Top messy paper -->
                <polygon points="-75,10 90,-20 120,30 -40,70" fill="#ffffff" stroke="#2c3e50" stroke-width="6" stroke-linejoin="round"/>
                
                <!-- Writing / Lines on top paper -->
                <path d="M -30,20 L 70,-5 M -20,30 L 80,5 M -10,40 L 50,25" fill="none" stroke="#2c3e50" stroke-width="3" stroke-linecap="round"/>
                
                <!-- Huge highly-detailed red "APPROVED" stamp -->
                <g transform="translate(20, 20) rotate(-25)">
                    <rect x="-60" y="-20" width="120" height="40" fill="#ffffff" stroke="#c0392b" stroke-width="6" rx="5"/>
                    <rect x="-50" y="-12" width="100" height="24" fill="none" stroke="#c0392b" stroke-width="2"/>
                    <text x="0" y="7" font-size="20" fill="#c0392b" text-anchor="middle" letter-spacing="4">WATER</text>
                </g>

                <!-- Quill Pen marking the paper -->
                <path d="M 60,60 Q 150,-50 180,-80 Q 140,-50 60,60" fill="#ffffff" stroke="#2c3e50" stroke-width="5"/>
                <line x1="60" y1="60" x2="40" y2="75" stroke="#2c3e50" stroke-width="5" stroke-linecap="round"/>

                <!-- Label tag at top -->
                <rect x="-140" y="-60" width="90" height="30" fill="#ffffff" stroke="#16a085" stroke-width="4" transform="rotate(-15)"/>
                <text x="-95" y="-40" font-size="16" fill="#16a085" text-anchor="middle" transform="rotate(-15)">DOCS</text>
            </g>
        </g>
        
        <g transform="translate(450, 200) rotate(-15)" filter="url(#handdrawn)">
            <text x="0" y="0" font-size="22" fill="#16a085">UNDER THE</text>
            <text x="10" y="25" font-size="22" fill="#16a085">FRIDGE.</text>
            <path d="M 50,30 L 100,80" stroke="#16a085" stroke-width="3" marker-end="url(#arrow-green)"/>
        </g>

    </g>
</svg>